<svg width="421" height="421" viewBox="0 0 421 421" fill="none" xmlns="http://www.w3.org/2000/svg">
<g clip-path="url(#clip0_93_63)">
<path d="M189.483 52.593C195.515 44.6854 204.441 39.4979 214.298 38.1716C224.154 36.8454 234.134 39.4891 242.042 45.5211L361.305 136.496C369.212 142.528 374.4 151.454 375.726 161.311C377.052 171.168 374.408 181.148 368.376 189.055L231.914 367.949C225.882 375.857 216.956 381.044 207.099 382.371C197.242 383.697 187.262 381.053 179.355 375.021L60.0921 284.046C52.1845 278.014 46.997 269.088 45.6708 259.231C44.3445 249.374 46.9882 239.394 53.0202 231.487L189.483 52.593ZM213.612 82.7906L190.869 112.606C189.361 114.583 188.7 117.078 189.031 119.542C189.363 122.007 190.66 124.238 192.637 125.746L296.991 205.349C298.968 206.857 301.463 207.518 303.927 207.187C306.392 206.855 308.623 205.558 310.131 203.581L332.875 173.766C334.383 171.789 335.044 169.294 334.712 166.829C334.381 164.365 333.084 162.134 331.107 160.626L226.752 81.0227C224.775 79.5146 222.28 78.8537 219.816 79.1853C217.352 79.5169 215.12 80.8137 213.612 82.7906ZM168.125 142.422L156.753 157.33C155.245 159.307 154.584 161.802 154.916 164.266C155.247 166.73 156.544 168.962 158.521 170.47L173.429 181.841C175.406 183.349 177.901 184.01 180.365 183.679C182.829 183.347 185.061 182.05 186.569 180.073L197.94 165.166C199.448 163.189 200.109 160.694 199.778 158.23C199.446 155.765 198.149 153.534 196.173 152.026L181.265 140.654C179.288 139.146 176.793 138.485 174.329 138.817C171.864 139.148 169.633 140.445 168.125 142.422ZM147.149 185.377C145.172 183.869 142.677 183.208 140.213 183.54C137.749 183.872 135.517 185.168 134.009 187.145L122.637 202.053C121.129 204.03 120.468 206.525 120.8 208.989C121.132 211.453 122.428 213.685 124.405 215.193L139.313 226.565C141.29 228.073 143.785 228.734 146.249 228.402C148.713 228.071 150.945 226.774 152.453 224.797L163.825 209.889C165.333 207.912 165.994 205.417 165.662 202.953C165.331 200.489 164.034 198.257 162.057 196.749L147.149 185.377ZM99.8936 231.869L88.5218 246.777C87.0138 248.754 86.3529 251.249 86.6844 253.713C87.016 256.177 88.3129 258.409 90.2898 259.917L105.198 271.288C107.174 272.796 109.669 273.457 112.134 273.126C114.598 272.794 116.829 271.497 118.337 269.52L129.709 254.613C131.217 252.636 131.878 250.141 131.547 247.677C131.215 245.212 129.918 242.981 127.941 241.473L113.033 230.101C111.057 228.593 108.562 227.932 106.097 228.264C103.633 228.595 101.402 229.892 99.8936 231.869ZM225.988 174.77C224.011 173.262 221.516 172.601 219.052 172.932C216.588 173.264 214.356 174.561 212.848 176.538L201.476 191.445C199.968 193.422 199.308 195.917 199.639 198.381C199.971 200.846 201.268 203.077 203.244 204.585L218.152 215.957C220.129 217.465 222.624 218.126 225.088 217.794C227.553 217.463 229.784 216.166 231.292 214.189L242.664 199.281C244.172 197.304 244.833 194.809 244.501 192.345C244.17 189.881 242.873 187.649 240.896 186.141L225.988 174.77ZM178.733 221.261L167.361 236.169C165.853 238.146 165.192 240.641 165.523 243.105C165.855 245.569 167.152 247.801 169.129 249.309L184.037 260.681C186.014 262.189 188.509 262.849 190.973 262.518C193.437 262.186 195.668 260.889 197.176 258.913L208.548 244.005C210.056 242.028 210.717 239.533 210.386 237.069C210.054 234.604 208.757 232.373 206.78 230.865L191.873 219.493C189.896 217.985 187.401 217.324 184.936 217.656C182.472 217.987 180.241 219.284 178.733 221.261ZM157.757 264.216C155.78 262.708 153.285 262.048 150.821 262.379C148.357 262.711 146.125 264.008 144.617 265.984L133.245 280.892C131.737 282.869 131.076 285.364 131.408 287.828C131.739 290.293 133.036 292.524 135.013 294.032L149.921 305.404C151.898 306.912 154.393 307.573 156.857 307.241C159.321 306.91 161.553 305.613 163.061 303.636L174.433 288.728C175.941 286.751 176.602 284.256 176.27 281.792C175.939 279.328 174.642 277.096 172.665 275.588L157.757 264.216ZM257.572 210.653L246.2 225.561C244.692 227.538 244.031 230.033 244.363 232.497C244.694 234.961 245.991 237.193 247.968 238.701L262.876 250.073C264.853 251.581 267.348 252.242 269.812 251.91C272.276 251.578 274.508 250.282 276.016 248.305L287.387 233.397C288.895 231.42 289.556 228.925 289.225 226.461C288.893 223.997 287.596 221.765 285.619 220.257L270.712 208.885C268.735 207.377 266.24 206.716 263.776 207.048C261.311 207.379 259.08 208.676 257.572 210.653ZM236.596 253.609C234.619 252.101 232.124 251.44 229.66 251.771C227.196 252.103 224.964 253.4 223.456 255.377L177.969 315.008C176.461 316.985 175.8 319.48 176.131 321.944C176.463 324.408 177.76 326.64 179.737 328.148L194.645 339.52C196.621 341.028 199.116 341.689 201.581 341.357C204.045 341.025 206.276 339.729 207.784 337.752L253.272 278.12C254.78 276.143 255.441 273.648 255.109 271.184C254.778 268.72 253.481 266.488 251.504 264.98L236.596 253.609Z" fill="#87E0E5" fill-opacity="0.4"/>
</g>
<defs>
<clipPath id="clip0_93_63">
<rect width="300" height="300" fill="white" transform="translate(182.411 0.0332031) rotate(37.3368)"/>
</clipPath>
</defs>
</svg>
