<svg width="285" height="284" viewBox="0 0 285 284" fill="none" xmlns="http://www.w3.org/2000/svg">
<g clip-path="url(#clip0_93_239)">
<path d="M76.5782 145.356C73.5627 147.24 72.6457 151.212 74.53 154.228C76.4143 157.243 80.3863 158.16 83.4018 156.276C86.4173 154.392 87.3344 150.42 85.4501 147.404C83.5658 144.389 79.5937 143.472 76.5782 145.356Z" fill="#2421BD" fill-opacity="0.4"/>
<path d="M76.3717 77.1571L100.472 62.0973L115.532 86.198L105.221 130.859C105.968 131.783 106.659 132.75 107.29 133.757C110.749 139.283 112.448 145.73 112.163 152.243C111.877 158.757 109.621 165.03 105.693 170.233C101.764 175.436 96.3482 179.323 90.1619 181.381C83.9755 183.439 77.3101 183.57 71.0478 181.756C64.7854 179.943 59.2213 176.271 55.0916 171.226C50.9619 166.181 48.4613 160.001 47.9207 153.504C47.3802 147.007 48.8251 140.499 52.0643 134.841C55.3035 129.183 60.1843 124.641 66.0609 121.818L76.3717 77.1571ZM96.3759 79.8411L87.7162 85.2522L77.0531 131.439L73.6816 132.604C69.6499 133.962 66.1714 136.599 63.7747 140.114C61.3779 143.629 60.1938 147.83 60.4022 152.08C60.6106 156.329 62.2001 160.394 64.9293 163.658C67.6585 166.921 71.3782 169.205 75.5236 170.162C79.6689 171.119 84.0133 170.697 87.897 168.96C91.7806 167.223 94.9913 164.266 97.0414 160.539C99.0914 156.811 99.8689 152.516 99.2556 148.306C98.6423 144.096 96.6718 140.201 93.6433 137.213L91.1239 134.688L101.787 88.5007L96.3759 79.8411ZM224.673 151.512L213.753 158.336L186.458 114.655L197.378 107.832L224.673 151.512ZM246.513 137.865L235.593 144.688L208.298 101.008L219.218 94.1844L246.513 137.865ZM159.152 192.454L148.232 199.277L127.761 166.517L138.681 159.694L159.152 192.454ZM153.698 135.126L164.618 128.303C167.514 126.493 171.011 125.908 174.338 126.676C177.666 127.444 180.552 129.503 182.362 132.399L196.009 154.239C197.819 157.135 198.404 160.632 197.635 163.959C196.867 167.287 194.809 170.173 191.912 171.983L180.992 178.807C178.096 180.616 174.6 181.201 171.272 180.433C167.944 179.665 165.058 177.606 163.249 174.71L149.601 152.87C147.792 149.974 147.206 146.477 147.975 143.15C148.743 139.822 150.802 136.936 153.698 135.126ZM171.441 139.223L160.521 146.046L174.169 167.886L185.089 161.063L171.441 139.223ZM212.395 83.2643L201.475 90.0879L174.18 46.4076L185.1 39.5839L212.395 83.2643ZM146.874 124.206L135.954 131.03L122.307 109.19L133.227 102.366L146.874 124.206ZM141.42 66.8784L152.34 60.0548C155.236 58.2451 158.733 57.66 162.06 58.4282C165.388 59.1964 168.274 61.2551 170.084 64.1513L183.731 85.9915C185.541 88.8876 186.126 92.3841 185.357 95.7117C184.589 99.0393 182.531 101.925 179.634 103.735L168.714 110.559C165.818 112.369 162.322 112.954 158.994 112.185C155.666 111.417 152.78 109.359 150.971 106.462L137.323 84.6222C135.514 81.726 134.928 78.2295 135.697 74.9019C136.465 71.5743 138.524 68.6882 141.42 66.8784ZM159.164 70.9749L148.243 77.7985L161.891 99.6387L172.811 92.8151L159.164 70.9749ZM266.984 170.625L256.064 177.449L242.416 155.608L253.336 148.785L266.984 170.625ZM201.463 211.567L190.543 218.39L176.896 196.55L187.816 189.727L201.463 211.567ZM179.623 225.214L168.703 232.038L155.056 210.197L165.976 203.374L179.623 225.214ZM209.656 176.079L220.576 169.256C223.472 167.446 226.969 166.861 230.296 167.629C233.624 168.397 236.51 170.456 238.32 173.352L245.144 184.272L234.223 191.096L227.4 180.176L216.48 186.999L223.303 197.92L212.383 204.743L205.56 193.823C203.75 190.927 203.165 187.43 203.933 184.103C204.701 180.775 206.76 177.889 209.656 176.079Z" fill="#2421BD" fill-opacity="0.4"/>
</g>
<defs>
<clipPath id="clip0_93_239">
<rect width="206.028" height="206.028" fill="white" transform="translate(284.727 174.722) rotate(148)"/>
</clipPath>
</defs>
</svg>
