<svg width="325" height="325" viewBox="0 0 325 325" fill="none" xmlns="http://www.w3.org/2000/svg">
<g clip-path="url(#clip0_93_299)">
<path d="M68.7409 146.526L61.6988 159.771L92.0678 175.918L25.2651 196.342L29.65 210.684L96.4527 190.26L80.3052 220.629L93.5495 227.671L121.718 174.695L68.7409 146.526ZM276.126 171.852L257.52 110.993L243.177 115.378L257.399 161.895L210.882 176.116L215.267 190.459L276.126 171.852ZM143.291 164.794L225.289 76.876L236.263 87.1023L154.261 175.027L143.291 164.794ZM103.951 80.3053L164.81 61.6989L169.195 76.0413L122.679 90.2628L136.9 136.779L122.558 141.164L103.951 80.3053Z" fill="#47B3AC" fill-opacity="0.4"/>
</g>
<defs>
<clipPath id="clip0_93_299">
<rect width="240" height="240" fill="white" transform="translate(112.673) rotate(28)"/>
</clipPath>
</defs>
</svg>
