<svg width="309" height="309" viewBox="0 0 309 309" fill="none" xmlns="http://www.w3.org/2000/svg">
<g clip-path="url(#clip0_93_49)">
<path d="M218.647 25.7026C215.249 18.8873 209.279 13.7026 202.052 11.2892C194.824 8.87579 186.929 9.43131 180.106 12.8336L25.7294 89.8027C18.9055 93.2049 13.711 99.1752 11.2886 106.4C8.86614 113.625 9.41419 121.513 12.8122 128.328L64.0608 231.117C67.4588 237.932 73.4284 243.117 80.6563 245.53C87.8843 247.944 95.7785 247.388 102.602 243.986L225.923 182.5C229.335 180.8 233.282 180.523 236.896 181.73L291.875 200.088C293.223 200.54 294.674 200.582 296.047 200.209C297.419 199.836 298.65 199.065 299.584 197.992C300.518 196.92 301.114 195.596 301.294 194.186C301.475 192.777 301.234 191.346 300.6 190.075L218.647 25.7026ZM64.2447 118.727L180.027 61.0005C181.733 60.1499 183.706 60.0111 185.513 60.6144C187.32 61.2178 188.813 62.5139 189.662 64.2178C190.512 65.9216 190.649 67.8935 190.043 69.6998C189.437 71.506 188.139 72.9986 186.433 73.8491L70.6507 131.576C68.9448 132.427 66.9712 132.565 65.1642 131.962C63.3573 131.359 61.8649 130.063 61.0154 128.359C60.1659 126.655 60.0288 124.683 60.6345 122.877C61.2401 121.07 62.5387 119.578 64.2447 118.727ZM80.2599 150.849L196.042 93.122C197.748 92.2715 199.722 92.1326 201.528 92.7359C203.335 93.3393 204.828 94.6355 205.677 96.3393C206.527 98.0431 206.664 100.015 206.058 101.821C205.453 103.628 204.154 105.12 202.448 105.971L86.6659 163.697C84.96 164.548 82.9864 164.687 81.1794 164.084C79.3724 163.48 77.8801 162.184 77.0306 160.48C76.1811 158.776 76.044 156.804 76.6497 154.998C77.2553 153.192 78.5539 151.699 80.2599 150.849ZM96.2751 182.97L160.598 150.9C162.304 150.049 164.278 149.91 166.085 150.514C167.892 151.117 169.384 152.413 170.234 154.117C171.083 155.821 171.22 157.793 170.615 159.599C170.009 161.405 168.71 162.898 167.005 163.749L102.681 195.819C100.975 196.67 99.0016 196.808 97.1946 196.205C95.3877 195.602 93.8952 194.306 93.0458 192.602C92.1963 190.898 92.0592 188.926 92.6648 187.12C93.2705 185.314 94.5691 183.821 96.2751 182.97Z" fill="#14B8AE" fill-opacity="0.5"/>
</g>
<defs>
<clipPath id="clip0_93_49">
<rect width="230" height="230" fill="white" transform="translate(3.05176e-05 102.631) rotate(-26.5)"/>
</clipPath>
</defs>
</svg>
