<svg width="243" height="252" viewBox="0 0 243 252" fill="none" xmlns="http://www.w3.org/2000/svg">
<g clip-path="url(#clip0_93_52)">
<path d="M65.7423 163.314L78.759 212.981L126.258 193.487L156.516 208.573C166.052 213.327 177.673 209.438 182.427 199.903L234.15 96.1616C238.905 86.6261 235.016 75.0051 225.481 70.2508L104.449 9.90672C94.9136 5.15246 83.2926 9.0408 78.5383 18.5764L26.8148 122.318C22.0606 131.853 25.9489 143.474 35.4844 148.228L65.7423 163.314ZM100.188 61.7529L186.639 104.856L178.018 122.146L91.5673 79.0431L100.188 61.7529ZM82.9467 96.3333L143.462 126.505L134.842 143.796L74.3261 113.624L82.9467 96.3333Z" fill="#8D30E9" fill-opacity="0.5"/>
</g>
<defs>
<clipPath id="clip0_93_52">
<rect x="86.3865" y="0.989258" width="175" height="192.648" transform="rotate(26.5 86.3865 0.989258)" fill="white"/>
</clipPath>
</defs>
</svg>
