<svg width="412" height="412" viewBox="0 0 412 412" fill="none" xmlns="http://www.w3.org/2000/svg">
<g clip-path="url(#clip0_93_61)">
<path d="M344.063 144.647C354.731 162.401 352.584 183.276 339.269 191.276C322.981 201.063 313.681 184.777 301.667 191.995C294.907 196.057 292.722 204.821 296.796 211.602L337.717 279.706C343.05 288.581 340.177 300.103 331.302 305.435L295.321 327.055C288.561 331.117 279.797 328.931 275.723 322.151C268.33 309.846 284.794 300.842 275.016 284.569C267.016 271.255 246.141 269.107 228.387 279.775C210.633 290.443 202.729 309.883 210.729 323.197C220.515 339.485 236.373 329.471 243.592 341.485C247.654 348.245 245.469 357.009 238.688 361.083L170.584 402.005C161.709 407.337 150.187 404.464 144.855 395.59L103.933 327.485C99.8593 320.705 102.049 311.938 108.805 307.879C120.703 300.73 130.134 316.937 146.407 307.16C159.716 299.163 161.853 278.26 151.2 260.531C140.548 242.801 120.817 234.423 107.507 242.42C91.2192 252.207 101.233 268.065 89.2191 275.283C82.4639 279.342 73.9665 277.612 69.8925 270.832L48.273 234.851C42.9405 225.976 46.0848 214.906 54.9595 209.574L123.064 168.653C129.313 163.695 131.77 155.383 127.696 148.602C120.547 136.704 104.611 146.587 94.833 130.314C86.8329 117 95.0086 98.0125 112.763 87.3446C130.517 76.6767 151.392 78.824 159.121 91.6865C168.907 107.974 152.621 117.275 159.84 129.288C163.899 136.044 172.671 138.231 179.426 134.172L215.407 112.552C224.281 107.22 235.803 110.093 240.864 118.515L262.484 154.496C266.542 161.251 275.314 163.438 282.07 159.379C293.968 152.23 284.085 136.294 300.358 126.517C313.679 118.539 333.41 126.918 344.063 144.647Z" fill="#7B67F8" fill-opacity="0.3"/>
</g>
<defs>
<clipPath id="clip0_93_61">
<rect width="300" height="300" fill="white" transform="translate(0 154.512) rotate(-31)"/>
</clipPath>
</defs>
</svg>
